<svg width="208" height="32" viewBox="0 0 208 32" fill="none" xmlns="http://www.w3.org/2000/svg">
<g clip-path="url(#clip0_428_629)">
<path d="M10.36 26H1.82V6.4H10.584C12.7307 6.4 14.3547 6.75467 15.456 7.464C16.7253 8.37867 17.36 9.69467 17.36 11.412C17.36 13.1107 16.7253 14.5107 15.456 15.612C17.1547 16.4147 18.004 17.936 18.004 20.176C18.004 21.5947 17.612 22.7613 16.828 23.676C16.0627 24.572 15.1387 25.188 14.056 25.524C12.9733 25.8413 11.7413 26 10.36 26ZM10.136 17.964H6.16V21.94H9.912C10.3787 21.94 10.7707 21.9213 11.088 21.884C11.424 21.8467 11.7973 21.772 12.208 21.66C12.6187 21.548 12.9267 21.3427 13.132 21.044C13.356 20.7453 13.468 20.372 13.468 19.924C13.468 19.476 13.3653 19.112 13.16 18.832C12.9733 18.552 12.6933 18.356 12.32 18.244C11.9467 18.1133 11.6013 18.0387 11.284 18.02C10.9853 17.9827 10.6027 17.964 10.136 17.964ZM9.856 10.46H6.16V14.044H10.22C10.9107 14.044 11.5173 13.9227 12.04 13.68C12.5813 13.4373 12.852 13.008 12.852 12.392C12.852 11.9627 12.768 11.608 12.6 11.328C12.4507 11.048 12.208 10.852 11.872 10.74C11.5547 10.628 11.2467 10.5533 10.948 10.516C10.668 10.4787 10.304 10.46 9.856 10.46ZM22.2526 16.312L20.3206 13.372C21.0299 12.6067 21.9726 12.0467 23.1486 11.692C24.3432 11.3187 25.5379 11.132 26.7326 11.132C28.6179 11.132 30.0832 11.664 31.1286 12.728C32.1739 13.792 32.6966 15.276 32.6966 17.18V26H28.6366V24.684C28.2259 25.1507 27.6379 25.5147 26.8726 25.776C26.1259 26.0373 25.4072 26.168 24.7166 26.168C23.1859 26.168 21.9166 25.748 20.9086 24.908C19.9006 24.068 19.3966 22.9013 19.3966 21.408C19.3966 20.2693 19.7512 19.3267 20.4606 18.58C21.1699 17.8333 21.9912 17.32 22.9246 17.04C23.8766 16.76 24.9032 16.62 26.0046 16.62C27.1059 16.62 27.9832 16.7413 28.6366 16.984C28.6739 16.2747 28.4872 15.752 28.0766 15.416C27.6472 15.08 27.0499 14.912 26.2846 14.912C24.9219 14.912 23.5779 15.3787 22.2526 16.312ZM25.5566 22.668C26.1726 22.668 26.7699 22.5187 27.3486 22.22C27.9459 21.9213 28.3752 21.52 28.6366 21.016V20.344C27.9832 20.1013 27.2459 19.98 26.4246 19.98C25.7899 19.98 25.2486 20.036 24.8006 20.148C23.9979 20.4093 23.5966 20.8293 23.5966 21.408C23.5966 21.856 23.7926 22.1827 24.1846 22.388C24.5952 22.5747 25.0526 22.668 25.5566 22.668ZM53.5909 26H35.1389V11.44H39.1989V22.22H42.3349V11.44H46.3949V22.22H49.5309V11.44H53.5909V26ZM66.7888 26H62.7288V11.44H66.3128L70.8488 17.264L75.4408 11.44H78.7728V26H74.7128V18.552L70.8768 23.368L66.7888 18.468V26ZM83.3112 16.312L81.3792 13.372C82.0885 12.6067 83.0312 12.0467 84.2072 11.692C85.4018 11.3187 86.5965 11.132 87.7912 11.132C89.6765 11.132 91.1418 11.664 92.1872 12.728C93.2325 13.792 93.7552 15.276 93.7552 17.18V26H89.6952V24.684C89.2845 25.1507 88.6965 25.5147 87.9312 25.776C87.1845 26.0373 86.4658 26.168 85.7752 26.168C84.2445 26.168 82.9752 25.748 81.9672 24.908C80.9592 24.068 80.4552 22.9013 80.4552 21.408C80.4552 20.2693 80.8098 19.3267 81.5192 18.58C82.2285 17.8333 83.0498 17.32 83.9832 17.04C84.9352 16.76 85.9618 16.62 87.0632 16.62C88.1645 16.62 89.0418 16.7413 89.6952 16.984C89.7325 16.2747 89.5458 15.752 89.1352 15.416C88.7058 15.08 88.1085 14.912 87.3432 14.912C85.9805 14.912 84.6365 15.3787 83.3112 16.312ZM86.6152 22.668C87.2312 22.668 87.8285 22.5187 88.4072 22.22C89.0045 21.9213 89.4338 21.52 89.6952 21.016V20.344C89.0418 20.1013 88.3045 19.98 87.4832 19.98C86.8485 19.98 86.3072 20.036 85.8592 20.148C85.0565 20.4093 84.6552 20.8293 84.6552 21.408C84.6552 21.856 84.8512 22.1827 85.2432 22.388C85.6538 22.5747 86.1112 22.668 86.6152 22.668ZM107.006 20.54L109.974 22.304C109.339 23.536 108.434 24.4973 107.258 25.188C106.082 25.8787 104.794 26.224 103.394 26.224C101.079 26.224 99.1842 25.5333 97.7095 24.152C96.2348 22.7707 95.4975 20.9507 95.4975 18.692C95.4975 16.4707 96.2255 14.66 97.6815 13.26C99.1562 11.8413 100.995 11.132 103.198 11.132C104.654 11.132 105.988 11.4307 107.202 12.028C108.434 12.6253 109.32 13.54 109.862 14.772L106.838 16.732C106.352 16.0973 105.858 15.64 105.354 15.36C104.85 15.0613 104.215 14.912 103.45 14.912C102.33 14.912 101.424 15.2667 100.734 15.976C100.043 16.6667 99.6975 17.572 99.6975 18.692C99.6975 19.7933 100.108 20.6987 100.93 21.408C101.751 22.0987 102.722 22.444 103.842 22.444C105.186 22.444 106.24 21.8093 107.006 20.54ZM121.963 20.54L124.931 22.304C124.296 23.536 123.391 24.4973 122.215 25.188C121.039 25.8787 119.751 26.224 118.351 26.224C116.036 26.224 114.141 25.5333 112.667 24.152C111.192 22.7707 110.455 20.9507 110.455 18.692C110.455 16.4707 111.183 14.66 112.639 13.26C114.113 11.8413 115.952 11.132 118.155 11.132C119.611 11.132 120.945 11.4307 122.159 12.028C123.391 12.6253 124.277 13.54 124.819 14.772L121.795 16.732C121.309 16.0973 120.815 15.64 120.311 15.36C119.807 15.0613 119.172 14.912 118.407 14.912C117.287 14.912 116.381 15.2667 115.691 15.976C115 16.6667 114.655 17.572 114.655 18.692C114.655 19.7933 115.065 20.6987 115.887 21.408C116.708 22.0987 117.679 22.444 118.799 22.444C120.143 22.444 121.197 21.8093 121.963 20.54ZM128.292 16.312L126.36 13.372C127.069 12.6067 128.012 12.0467 129.188 11.692C130.382 11.3187 131.577 11.132 132.772 11.132C134.657 11.132 136.122 11.664 137.168 12.728C138.213 13.792 138.736 15.276 138.736 17.18V26H134.676V24.684C134.265 25.1507 133.677 25.5147 132.912 25.776C132.165 26.0373 131.446 26.168 130.756 26.168C129.225 26.168 127.956 25.748 126.948 24.908C125.94 24.068 125.436 22.9013 125.436 21.408C125.436 20.2693 125.79 19.3267 126.5 18.58C127.209 17.8333 128.03 17.32 128.964 17.04C129.916 16.76 130.942 16.62 132.044 16.62C133.145 16.62 134.022 16.7413 134.676 16.984C134.713 16.2747 134.526 15.752 134.116 15.416C133.686 15.08 133.089 14.912 132.324 14.912C130.961 14.912 129.617 15.3787 128.292 16.312ZM131.596 22.668C132.212 22.668 132.809 22.5187 133.388 22.22C133.985 21.9213 134.414 21.52 134.676 21.016V20.344C134.022 20.1013 133.285 19.98 132.464 19.98C131.829 19.98 131.288 20.036 130.84 20.148C130.037 20.4093 129.636 20.8293 129.636 21.408C129.636 21.856 129.832 22.1827 130.224 22.388C130.634 22.5747 131.092 22.668 131.596 22.668ZM139.722 26L145.154 17.992L139.638 11.44H144.734L148.598 16.396V11.44H152.658V16.424L156.718 11.44H161.618L156.074 17.992L161.618 26H156.662L153.218 20.456L152.658 21.128V26H148.598V21.156L148.038 20.484L144.538 26H139.722ZM172.556 18.076L166.032 26H162.588V11.44H166.648V19.364L173.172 11.44H176.616V26H172.556V18.076ZM189.939 20.54L192.907 22.304C192.272 23.536 191.367 24.4973 190.191 25.188C189.015 25.8787 187.727 26.224 186.327 26.224C184.012 26.224 182.118 25.5333 180.643 24.152C179.168 22.7707 178.431 20.9507 178.431 18.692C178.431 16.4707 179.159 14.66 180.615 13.26C182.09 11.8413 183.928 11.132 186.131 11.132C187.587 11.132 188.922 11.4307 190.135 12.028C191.367 12.6253 192.254 13.54 192.795 14.772L189.771 16.732C189.286 16.0973 188.791 15.64 188.287 15.36C187.783 15.0613 187.148 14.912 186.383 14.912C185.263 14.912 184.358 15.2667 183.667 15.976C182.976 16.6667 182.631 17.572 182.631 18.692C182.631 19.7933 183.042 20.6987 183.863 21.408C184.684 22.0987 185.655 22.444 186.775 22.444C188.119 22.444 189.174 21.8093 189.939 20.54ZM197.978 15.22H193.022V11.44H207.05V15.22H202.038V26H197.978V15.22Z" fill="white"/>
</g>
<defs>
<clipPath id="clip0_428_629">
<rect width="208" height="32" fill="white"/>
</clipPath>
</defs>
</svg>
